<svg xmlns="http://www.w3.org/2000/svg" viewBox="0 0 360 260"><defs><filter id="s"><feDropShadow dx="0" dy="10" stdDeviation="8" flood-opacity=".22"/></filter></defs><g filter="url(#s)"><path d="M104 112h152l-18 108c-3 18-20 30-58 30s-55-12-58-30z" fill="#fff" stroke="#e3e3e3" stroke-width="6"/><path d="M116 122c29 19 99-17 128 7l-13 76c-37-24-74 10-110-8z" fill="#f5a7d6"/><path d="M118 106c8-33 42-30 47-52 18 12 13 29 8 42 20-25 57-17 64 10 4 18-10 32-31 32h-79c-15 0-17-18-9-32z" fill="#fff3e6"/><circle cx="196" cy="58" r="18" fill="#e93560"/></g></svg>